<?xml version="1.0" encoding="UTF-8" standalone="no"?>
<!-- Created with Inkscape (http://www.inkscape.org/) -->

<svg
   width="210mm"
   height="297mm"
   viewBox="0 0 210 297"
   version="1.1"
   id="svg1"
   inkscape:version="1.4 (1:1.4+202410161351+e7c3feb100)"
   sodipodi:docname="ORCA.svg"
   xmlns:inkscape="http://www.inkscape.org/namespaces/inkscape"
   xmlns:sodipodi="http://sodipodi.sourceforge.net/DTD/sodipodi-0.dtd"
   xmlns="http://www.w3.org/2000/svg"
   xmlns:svg="http://www.w3.org/2000/svg">
  <sodipodi:namedview
     id="namedview1"
     pagecolor="#ffffff"
     bordercolor="#000000"
     borderopacity="0.25"
     inkscape:showpageshadow="2"
     inkscape:pageopacity="0.0"
     inkscape:pagecheckerboard="0"
     inkscape:deskcolor="#d1d1d1"
     inkscape:document-units="mm"
     inkscape:zoom="0.78484147"
     inkscape:cx="396.89544"
     inkscape:cy="561.25984"
     inkscape:window-width="1870"
     inkscape:window-height="1131"
     inkscape:window-x="0"
     inkscape:window-y="0"
     inkscape:window-maximized="1"
     inkscape:current-layer="layer1" />
  <defs
     id="defs1" />
  <g
     inkscape:label="Layer 1"
     inkscape:groupmode="layer"
     id="layer1">
    <g
       id="g1">
      <path
         id="rect1-9"
         style="fill:#ffffff;stroke-width:0.252568"
         d="M 8.2711431,27.292501 H 21.824158 V 40.30087 H 8.2711431 Z"
         sodipodi:nodetypes="ccccc"
         inkscape:export-filename="github.io/ORCA_main_banner_150dpi.png"
         inkscape:export-xdpi="300"
         inkscape:export-ydpi="300" />
      <path
         id="rect394-1-6-3-4-2-4-0-3-3-87-7-2-3"
         style="fill:#58aab4;fill-opacity:1;stroke:none;stroke-width:0.063142;stroke-dasharray:none"
         d="m 14.080516,30.736203 c -0.61657,-0.354082 -1.195519,-0.403402 -1.682944,-0.183484 -0.936851,-0.180176 -2.6174589,0.614542 -4.1028069,1.49521 -0.01301,0.0077 -0.03056,0.03567 -0.0389,0.02311 l -0.02595,-0.03908 c -0.0086,-0.01307 0.02374,-0.02046 0.03567,-0.03069 1.8992309,-1.624923 4.3414079,-2.630972 5.8148789,-1.265076 z"
         sodipodi:nodetypes="ccsssscc"
         inkscape:export-filename="ORCA_square_with_frame_centered_name.png"
         inkscape:export-xdpi="300"
         inkscape:export-ydpi="300" />
      <path
         id="rect1170-8-1-2-7-6-8-4-4-6-2-0-8-6"
         style="fill:#8ed1d7;fill-opacity:1;stroke:none;stroke-width:0.063142;stroke-dasharray:none"
         d="m 12.351901,30.639268 c -0.524641,0.183989 -0.619272,1.133128 -0.156055,1.514998 -1.196252,-0.211443 -2.6318099,-0.168848 -3.9379219,0.372519 -0.03195,0.01326 4.42e-4,0.0708 0,0.03833 v -0.322757 c -4.36e-4,-0.03189 -0.02733,-0.03574 0,-0.05411 1.714538,-1.150227 3.6689359,-1.766203 4.0942989,-1.549013 z"
         sodipodi:nodetypes="ccsssscc" />
      <path
         id="rect1173-7-2-0-4-6-1-4-0-0-8-4-3-0"
         style="fill:#91d2d8;fill-opacity:1;stroke:none;stroke-width:0.063142;stroke-dasharray:none"
         d="m 13.676659,30.631413 c -0.780423,-0.1131 -1.311637,1.033679 -0.483649,1.773224 -0.295921,-0.1076 -0.573165,-0.169991 -0.899345,-0.25373 -0.904895,-0.795823 0.100813,-2.135849 1.382994,-1.519494 z"
         sodipodi:nodetypes="cccc" />
      <path
         id="rect1179-2-9-6-4-4-2-4-3-6-2-8-8-5"
         style="fill:#298aa3;fill-opacity:1;stroke:none;stroke-width:0.063142;stroke-dasharray:none"
         d="m 20.964029,31.009697 c -0.316443,0.208009 -0.278369,0.559621 -0.182777,0.828032 0.110639,0.310652 0.541787,0.498231 0.993799,0.573071 0.0096,0.0016 0.45426,0.06778 0.777773,0.118815 0.0055,8.66e-4 0.01978,-0.0017 0.01636,0.0026 l -0.211044,0.264228 c -0.0031,0.0038 -0.0097,7.27e-4 -0.01464,0.0011 -0.243655,0.01809 -0.541291,0.03758 -0.55166,0.03795 -0.326098,0.01174 -0.667187,-0.05556 -0.949975,-0.19628 -0.238643,-0.122415 -0.452372,-0.295531 -0.566438,-0.482501 -0.266718,-0.450696 -0.206898,-1.153612 0.688557,-1.146913 z"
         sodipodi:nodetypes="cssssssscccc" />
      <path
         id="rect1182-0-3-1-3-9-9-4-9-2-9-0-0-0"
         style="fill:#92d2d9;fill-opacity:1;stroke:none;stroke-width:0.063142;stroke-dasharray:none"
         d="m 19.780323,32.611288 c 0.517317,0.217954 1.200866,0.504299 1.975052,0.485171 0.11082,-0.0027 0.251183,-0.0417 0.370971,-0.07418 0.0058,-0.0016 0.04942,-0.01267 0.04565,-0.0086 l -0.07044,0.07613 c -0.0032,0.0035 -0.06404,0.04686 -0.0683,0.04914 -0.145868,0.07711 -0.260611,0.13294 -0.2772,0.143064 -1.372981,0.83785 -2.677784,0.774709 -3.431378,0.720268 -0.369223,-0.02665 -1.877257,-0.278021 -2.395931,-0.559925 1.606018,0.14361 3.044489,-0.283388 3.851634,-0.830899 z"
         sodipodi:nodetypes="csssssssccc" />
      <path
         id="rect1191-7-4-4-8-4-0-3-6-1-6-2-4-2"
         style="fill:#2c89a0;fill-opacity:1;stroke:none;stroke-width:0.063142;stroke-dasharray:none"
         d="m 8.2579241,32.579711 c -1.08e-4,-0.04218 -0.03991,-0.01585 0,-0.0329 0.780252,-0.333112 3.3329709,-0.817923 5.1538869,0.01042 2.061499,0.823669 4.364296,1.833481 6.619277,1.457344 0.575722,-0.124239 1.143043,-0.335875 1.695534,-0.652637 0.0086,-0.0049 0.129226,-0.09078 0.240517,-0.154933 0.0052,-0.003 0.02378,0.01591 0.01982,0.01963 -0.04461,0.04537 -0.148466,0.14597 -0.269745,0.232963 -2.260463,1.621426 -3.962546,2.042998 -6.932412,1.744075 -1.669823,-0.181142 -2.581304,-0.767088 -3.299942,-1.191605 -1.100446,-0.642325 -2.2097369,-0.899142 -3.2269359,-0.936497 -0.03915,-0.0013 10e-5,-0.0013 0,-0.0401 z"
         sodipodi:nodetypes="sscsssssccsss" />
      <g
         id="g18505-7-6-8-8-1-9-8-02-9-0-9"
         transform="matrix(0.76994572,0,0,0.76994572,-67.400316,-53.601992)"
         style="stroke:#1a1a1a">
        <path
           id="rect1194-5-7-6-8-7-8-7-3-7-7-6-9-4"
           style="fill:#06364c;fill-opacity:1;stroke:none;stroke-width:0.1;stroke-dasharray:none"
           d="m 106.90569,109.65986 c 0.41918,0.12687 0.6724,0.44178 0.99729,0.67548 0.58418,0.05 1.86575,-0.68441 2.79939,-0.077 0.0345,0.0224 0.0684,0.0467 0.10192,0.0728 0.0295,0.0311 0.0755,0.0368 0.10955,0.0534 0.026,0.0126 0.0497,0.0286 0.0692,0.0507 0.0707,0.12722 0.0522,0.19031 0.0102,0.26793 -0.21183,0.33045 -0.43875,0.81127 -0.71331,0.99587 -0.85912,0.64496 -3.28134,0.85965 -4.16829,-0.15165 -0.0494,-0.16264 0.54888,-0.47592 0.83307,-0.72868 0.092,-0.0545 0.0813,-0.11881 0.0854,-0.20141 -0.005,-0.14767 -0.035,-0.29113 -0.097,-0.42888 -0.09,-0.18719 -0.23439,-0.33565 -0.34087,-0.49147 -0.0242,-0.1209 0.19327,-0.0568 0.31317,-0.0372 z"
           sodipodi:nodetypes="ccscccccccccccc" />
        <path
           id="rect1249-9-8-5-8-1-5-5-3-9-61-1-1-3"
           style="fill:#fefefe;fill-opacity:1;stroke:none;stroke-width:0.1;stroke-dasharray:none"
           d="m 109.86061,110.38478 c 0.28524,0.031 0.24943,0.18356 0.064,0.27413 -0.13949,0.0542 -0.29052,0.0832 -0.43422,0.10707 -0.34279,0.0612 -0.4941,-0.0125 -0.32884,-0.1817 0.0796,-0.088 0.18468,-0.13135 0.28999,-0.15964 0.13595,-0.0466 0.27343,-0.0421 0.40903,-0.0399 z"
           sodipodi:nodetypes="cccccc" />
        <path
           id="rect1252-2-4-6-4-7-0-9-8-2-3-0-9-5"
           style="fill:#fefefe;fill-opacity:1;stroke:none;stroke-width:0.1;stroke-dasharray:none"
           d="m 108.42396,112.12493 c 0.3948,-0.79679 1.97072,-1.47187 2.34627,-1.48994 0.0774,-0.007 0.11031,0.004 0.12355,0.0178 0.0131,0.0182 0.0111,0.0364 0.003,0.0539 -0.10603,0.19704 -0.39588,0.80625 -0.85006,1.0791 -0.37304,0.31923 -1.1644,0.41129 -1.62276,0.33914 z"
           sodipodi:nodetypes="cccccc" />
      </g>
      <path
         style="color:#000000;fill:#60a0aa;fill-opacity:1;stroke:none;stroke-width:0.063142;stroke-dasharray:none"
         d="m 16.533199,27.962019 c -0.151168,0.04117 -0.263902,0.15079 -0.32681,0.265146 v 0.0013 l -0.0013,0.0013 c -0.12863,0.274674 -0.03858,0.510781 0.123325,0.61662 0.08097,0.05291 0.178699,0.07421 0.273778,0.05424 0.09508,-0.01995 0.186036,-0.08159 0.247883,-0.18745 l 0.0013,-0.0025 v -0.0013 c 0.07982,-0.172491 -0.02077,-0.360699 -0.181287,-0.413138 -0.02418,-0.0013 -0.04464,0.02349 -0.04527,0.05064 -3.09e-4,0.01345 0.0044,0.02753 0.01566,0.0394 0.01294,0.0044 0.02532,0.0097 0.03707,0.01635 0.08589,0.04862 0.134543,0.157545 0.0875,0.263574 -0.04988,0.08383 -0.114526,0.127553 -0.182525,0.141823 -0.06884,0.01446 -0.140913,-5.74e-4 -0.2023,-0.04073 -0.122477,-0.08005 -0.200893,-0.254747 -0.08879,-0.495766 0.05234,-0.09438 0.146098,-0.185537 0.266377,-0.218282 0.120885,-0.0329 0.270741,-0.01143 0.450133,0.131954 0.203192,0.172472 0.244581,0.502541 0.0666,0.753512 l -0.0013,0.0025 -0.0013,0.0013 c -0.100054,0.173367 -0.281436,0.243272 -0.503166,0.268851 -0.221723,0.02557 -0.478105,0.0032 -0.706647,-0.0025 l -4.231257,0.01231 h -0.0013 c -1.001521,0.0086 -1.9983439,0.308038 -2.7784959,1.172813 -0.03037,0.04073 0.01774,0.09982 0.0703,0.06289 0.760602,-0.843112 1.7261199,-1.132341 2.7094309,-1.140751 l 4.228794,-0.01231 c 0.224028,0.0057 0.484337,0.02848 0.720216,0.0013 0.235274,-0.02715 0.452527,-0.10737 0.572225,-0.313244 0.203015,-0.288736 0.160166,-0.674553 -0.08386,-0.880535 h -0.0013 c -0.196594,-0.157218 -0.382724,-0.190374 -0.533892,-0.149218 z"
         id="path1321-2-5-9-3-2-9-6-0-0-2-4-6-1"
         sodipodi:nodetypes="ccccssccccscscsscsccccsccscccccccccc" />
      <path
         style="color:#000000;fill:#94c3c7;fill-opacity:1;stroke:none;stroke-width:0.063142;stroke-dasharray:none"
         d="m 18.045155,28.60824 c -0.123588,0.03365 -0.214948,0.122319 -0.266378,0.21582 v 0.0013 l -0.0013,0.0013 c -0.105163,0.224558 -0.03252,0.417861 0.09989,0.504391 0.0662,0.04325 0.146717,0.06068 0.224451,0.04439 0.07774,-0.01629 0.151693,-0.0676 0.20225,-0.154155 l 0.0013,-0.0013 v -0.0013 c 0.04856,-0.101703 0.0298,-0.199011 -0.02715,-0.258977 -0.05695,-0.05998 -0.145428,-0.08471 -0.231845,-0.0666 -0.03081,0.01838 -0.02993,0.07054 0.01604,0.07523 0.06125,-0.01282 0.124125,0.0075 0.160324,0.04565 0.03593,0.03789 0.05045,0.09177 0.01358,0.170187 -0.04085,0.06889 -0.09472,0.104235 -0.150455,0.115922 -0.05626,0.01181 -0.11507,-4.92e-4 -0.165256,-0.03328 -0.100079,-0.06541 -0.164194,-0.208848 -0.07276,-0.405731 0.04281,-0.07707 0.120053,-0.152078 0.218282,-0.178825 0.09853,-0.02684 0.221439,-0.009 0.367506,0.107291 0.166827,0.140819 0.200009,0.411105 0.05424,0.616626 l -0.0013,0.0013 -0.0013,0.0025 c -0.0818,0.141741 -0.229396,0.198613 -0.41067,0.219519 -0.181275,0.0209 -0.390313,0.0019 -0.577157,-0.0025 h -0.0013 l -4.870077,0.0099 c -0.03145,0.0057 -0.04224,0.06643 0,0.0777 l 4.868845,-0.0099 c 0.183156,0.0044 0.395409,0.02349 0.588257,0.0013 0.191851,-0.02216 0.369381,-0.08916 0.467396,-0.256514 0.165622,-0.236013 0.131557,-0.550682 -0.06783,-0.718981 v -0.0013 c -0.160699,-0.12853 -0.314103,-0.1545 -0.437691,-0.120852 z"
         id="path1321-6-8-0-3-1-7-6-2-5-2-1-2-2-7"
         sodipodi:nodetypes="ccccsscccsccscsscsccccsccccccccccc" />
      <path
         style="color:#000000;fill:#579fa9;fill-opacity:1;stroke:none;stroke-width:0.063142;stroke-dasharray:none"
         d="m 20.186068,28.722932 c -0.183282,0.03852 -0.333466,0.152248 -0.408207,0.291046 -0.0883,0.150803 -0.104792,0.298675 -0.07029,0.424233 0.03448,0.125564 0.11839,0.226566 0.219513,0.292278 0.101132,0.06571 0.221458,0.09832 0.33668,0.08017 0.114662,-0.01806 0.222292,-0.09052 0.284878,-0.217051 0.0813,-0.156617 0.02646,-0.321487 -0.07769,-0.415607 -0.05209,-0.04704 -0.115976,-0.07883 -0.184986,-0.08633 -0.069,-0.0075 -0.143976,0.0113 -0.203482,0.06289 -0.03088,0.03334 0.007,0.101539 0.07522,0.08633 0.03592,-0.03113 0.07439,-0.04028 0.115923,-0.03574 0.04154,0.0044 0.08483,0.02418 0.120857,0.0567 0.07207,0.06514 0.111605,0.168236 0.05424,0.278715 l -0.0013,0.0013 c -0.0478,0.09778 -0.119771,0.142392 -0.202256,0.155387 -0.08249,0.01301 -0.176425,-0.0096 -0.256514,-0.06169 -0.08008,-0.05203 -0.145133,-0.131228 -0.17142,-0.226914 -0.02627,-0.09569 -0.01604,-0.209379 0.05916,-0.337911 v -0.0013 h 0.0013 c 0.113241,-0.212018 0.475441,-0.386 0.844772,-0.09496 1.14e-4,8.8e-5 -1.14e-4,0.0013 0,0.0013 0.230917,0.201587 0.279163,0.591098 0.07646,0.885466 l -0.0025,0.0013 -0.0013,0.0025 c -0.119101,0.212536 -0.276657,0.335379 -0.469865,0.406976 -0.193208,0.07159 -0.422566,0.09033 -0.677047,0.08386 l -0.0013,-0.0013 -4.215231,0.01231 c -0.06412,0.0097 -0.06985,0.100352 0,0.114673 l 4.212762,-0.01231 c 0.26156,0.0066 0.505623,-0.01175 0.720211,-0.09127 0.213244,-0.07902 0.395534,-0.223485 0.526598,-0.455065 0.232356,-0.339609 0.185739,-0.791751 -0.09373,-1.03469 h -0.0013 l -0.0013,-0.0013 c -0.208213,-0.165476 -0.425182,-0.202641 -0.609089,-0.164017 z"
         id="path1321-3-9-3-7-4-2-3-1-6-3-5-2-5-4"
         sodipodi:nodetypes="cccsscsscccsccssccccsccccscccccscccccc" />
      <path
         style="color:#000000;fill:#8cbbbe;fill-opacity:1;stroke:none;stroke-width:0.063142;stroke-dasharray:none"
         d="m 19.151612,29.369298 c -0.04837,0.292133 -0.206506,0.461177 -0.412835,0.547839 -0.274176,0.09233 -0.5347,0.07104 -0.795969,0.07182 l -3.515983,0.01035 c -0.06728,0.0051 -0.07145,0.106086 0,0.113461 l 3.478963,-0.01029 c 0.927525,0.0341 1.262872,-0.244 1.315893,-0.730692 -0.0067,-0.03587 -0.06697,-0.03081 -0.07007,-0.0025 z"
         id="path1321-3-7-7-6-4-9-2-8-7-6-7-9-2-4-3"
         sodipodi:nodetypes="ccccccccc" />
      <path
         id="rect1176-9-1-5-2-6-5-8-4-5-9-0-4-1"
         style="fill:#55acb4;fill-opacity:1;stroke:none;stroke-width:0.063142;stroke-dasharray:none"
         d="m 19.39219,31.367883 c 0.558257,-0.571714 1.377829,-0.690307 1.783011,-0.377924 -1.256035,-0.232047 -1.434164,1.083858 -0.47935,1.63486 0.226169,0.130515 0.660216,0.285164 1.104122,0.268506 0.06585,-0.0025 0.310513,-0.03241 0.494925,-0.04868 0.0059,-5.19e-4 0.02128,-0.0058 0.0174,-0.0015 l -0.110941,0.121177 c -0.0027,0.003 -0.008,0.0018 -0.01207,0.0027 -0.143261,0.03197 -0.293374,0.06585 -0.392235,0.07751 -0.678641,0.08003 -1.74926,-0.338 -2.005023,-0.526466 -0.686107,0.53305 -2.050095,0.801075 -2.431536,0.84381 -0.482614,0.05405 -1.210604,0.02222 -1.693211,0.0013 -1.155878,-0.45103 -1.824572,-0.611316 -2.458007,-1.021026 -0.600752,-0.388563 -0.511722,-1.690552 0.465509,-1.669551 -1.246437,0.868999 0.457609,1.538892 1.567053,1.694575 1.381895,0.193915 2.936061,0.172851 4.150321,-0.99916 z"
         sodipodi:nodetypes="ccssssssscscscscc" />
      <path
         style="fill:#216778;fill-opacity:1;stroke:none;stroke-width:0.0101027;stroke-dasharray:none"
         d="m 8.2579241,33.130998 c 3.09e-4,-0.03163 -0.03123,0.0025 0,0.0038 1.9873319,0.09743 3.2844079,1.021152 4.0466909,1.431083 0.590441,0.317522 1.342577,0.557197 2.46528,0.697107 1.521648,0.120974 3.095009,0.151408 4.447815,-0.367266 0.915086,-0.356008 1.794828,-0.866975 2.503188,-1.378787 0.0052,-0.0038 0.01113,-0.0071 0.01584,-0.01147 2.502023,-2.297945 2.887855,-6.212964 4.102435,-6.212964 H 206.34504 v 9.925435 H 16.19316 8.2579241 v 0 z"
         id="path18744-6-1-6-5-0-9-1-5-9-4"
         sodipodi:nodetypes="sssccssscccccs" />
    </g>
  </g>
</svg>
